<?xml version="1.0" encoding="UTF-8"?>
<svg version="1.1" xmlns="http://www.w3.org/2000/svg" width="493" height="493" viewBox="0 0 493 493">

  <!-- Define máscara circular -->
  <defs>
    <clipPath id="circleClip">
      <circle cx="246.5" cy="246.5" r="246.5"/>
      
    </clipPath>
  </defs>

  <!-- Aplica máscara circular a todo o conteúdo -->
  <g clip-path="url(#circleClip)">
<rect width="100%" height="100%" fill="#FFFFFF"/>

<path d="M0 0 C162.69 0 325.38 0 493 0 C493 162.69 493 325.38 493 493 C330.31 493 167.62 493 0 493 C0 330.31 0 167.62 0 0 Z M201 38 C200.00935547 38.20399414 199.01871094 38.40798828 197.99804688 38.61816406 C155.90103093 47.52779128 118.090572 66.12258099 87 96 C86.40541992 96.56734863 85.81083984 97.13469727 85.19824219 97.71923828 C76.30771906 106.24524537 68.23906097 115.02982653 61 125 C60.5467334 125.61955566 60.0934668 126.23911133 59.62646484 126.87744141 C34.68911253 161.23498977 18.15082883 202.95828615 17.76171875 245.7578125 C17.75183426 246.6554834 17.74194977 247.5531543 17.73176575 248.47802734 C17.18017969 311.52421122 38.65617307 366.00774252 82 412 C83.03447266 413.09828125 83.03447266 413.09828125 84.08984375 414.21875 C100.16519906 430.78721437 120.26382493 444.06095106 140.97558594 454.02246094 C142.89979012 454.95161115 144.8135499 455.89963766 146.7265625 456.8515625 C165.27761477 465.95329666 186.45763594 472.56456509 207 475 C208.04341553 475.12810059 208.04341553 475.12810059 209.10791016 475.25878906 C231.62297936 477.68837882 256.88507954 478.07568554 279 473 C280.10359863 472.7525 281.20719727 472.505 282.34423828 472.25 C320.49004988 463.4553419 354.14991544 446.28965498 384 421 C385.22900803 420.02063423 386.45814531 419.04143059 387.6875 418.0625 C388.450625 417.381875 389.21375 416.70125 390 416 C390 415.34 390 414.68 390 414 C390.5775 413.773125 391.155 413.54625 391.75 413.3125 C394.59591381 411.65238361 395.99841921 409.60812043 398 407 C398.77988281 406.22269531 399.55976563 405.44539063 400.36328125 404.64453125 C422.22561053 382.7174247 437.734301 352.2586299 447 323 C447.21994629 322.32582031 447.43989258 321.65164063 447.66650391 320.95703125 C450.41993908 312.47249147 452.55024092 303.94478413 454.25 295.1875 C454.41322754 294.35250977 454.57645508 293.51751953 454.74462891 292.65722656 C457.12724002 279.72160202 457.12932645 266.85050541 457.0625 253.75 C457.05747243 252.02213672 457.05291176 250.29427202 457.04882812 248.56640625 C457.03792797 244.37756832 457.02073348 240.18880033 457 236 C456.34 236 455.68 236 455 236 C454.78085937 236.60585937 454.56171875 237.21171875 454.3359375 237.8359375 C443.34667314 266.87261161 417.16465673 290.18118987 389.4921875 303.1640625 C369.95479815 311.93843636 349.75097798 316.40773918 328.3125 316.3125 C326.99540039 316.30758545 325.67830078 316.3026709 324.32128906 316.29760742 C314.25626985 316.17702013 304.77742475 315.35846713 295 313 C294.27490234 312.83371094 293.54980469 312.66742188 292.80273438 312.49609375 C269.20856761 306.98057425 247.37909511 295.72233663 229 280 C228.46358887 279.54334961 227.92717773 279.08669922 227.37451172 278.61621094 C199.72224943 254.82731883 182.14845117 220.1293682 178 184 C177.70759595 178.60061394 177.65924959 173.21862156 177.6875 167.8125 C177.68932281 167.08699951 177.69114563 166.36149902 177.69302368 165.61401367 C177.73994939 154.50714236 178.26662397 143.80436826 181 133 C181.16628906 132.31164062 181.33257812 131.62328125 181.50390625 130.9140625 C187.4411387 106.9012557 199.23702636 86.05991551 216 68 C216.47663086 67.47954102 216.95326172 66.95908203 217.44433594 66.42285156 C228.60838673 54.3393182 245.17970881 38.55225625 262 36 C262 35.67 262 35.34 262 35 C231.33935033 34.25450057 231.33935033 34.25450057 201 38 Z M326 93 C325.85884766 94.68416016 325.85884766 94.68416016 325.71484375 96.40234375 C323.22214053 116.06316236 310.08352547 135.60722017 295 148 C281.68425693 158.09729964 266.54421631 164.49709284 250 167 C250 167.66 250 168.32 250 169 C250.81082031 169.17015625 251.62164062 169.3403125 252.45703125 169.515625 C271.04226791 173.58317388 286.87071856 180.86077383 300 195 C300.66515625 195.68320313 301.3303125 196.36640625 302.015625 197.0703125 C315.50329884 211.33788585 322.64692613 227.91100927 326 247 C326.66 247 327.32 247 328 247 C327.938125 246.360625 327.87625 245.72125 327.8125 245.0625 C328.07913368 240.70748327 329.48065996 237.07068465 331 233 C331.41378906 231.85789063 331.82757813 230.71578125 332.25390625 229.5390625 C336.56887129 217.97047939 342.11626247 207.48818176 350.75 198.48828125 C352.21438165 197.0686809 352.21438165 197.0686809 352 195 C352.58910156 194.73445313 353.17820312 194.46890625 353.78515625 194.1953125 C356.05812354 192.96863174 357.57793351 191.6558766 359.4375 189.875 C372.96733668 177.89000655 389.1675811 171.61606296 407 170 C407 169.34 407 168.68 407 168 C405.94683594 167.78085938 404.89367187 167.56171875 403.80859375 167.3359375 C383.93130818 163.03739326 366.64764942 155.59714028 352 141 C351.31421875 140.33742187 350.6284375 139.67484375 349.921875 138.9921875 C338.41742804 127.08010266 330.24236367 109.35906223 328 93 C327.34 93 326.68 93 326 93 Z M489 289 C490 291 490 291 490 291 Z " transform="translate(0,0)"/>
<path d="M0 0 C0.495 0.99 0.495 0.99 1 2 C-0.12886611 4.89099859 -1.32290928 7.71929445 -2.5625 10.5625 C-5.88054307 18.50580461 -8.38207391 26.43914537 -10.375 34.8125 C-10.6129126 35.80000244 -10.8508252 36.78750488 -11.09594727 37.80493164 C-14.21531549 51.45483735 -15.35739227 64.86536832 -15.25 78.8125 C-15.24435028 79.93176376 -15.24435028 79.93176376 -15.23858643 81.07363892 C-15.05305267 112.47627653 -7.23971944 140.06851242 5.375 168.8125 C11.05675466 181.95944897 14.29424758 197.62758252 9.08984375 211.5859375 C8.73019531 212.38257813 8.37054688 213.17921875 8 214 C7.54753906 215.02351562 7.09507812 216.04703125 6.62890625 217.1015625 C-0.23158286 231.15158096 -11.13837608 240.86425713 -25.6875 246.375 C-40.62054996 250.59097377 -57.9126514 249.59871788 -71.75390625 242.609375 C-87.17443338 233.87643862 -94.93172597 221.12095965 -99.71801758 204.25268555 C-106.30360402 180.23448661 -104.93371365 151.02130975 -99 127 C-98.79101074 126.12424316 -98.58202148 125.24848633 -98.36669922 124.34619141 C-91.89983336 97.85383979 -79.98529126 74.22332587 -63 53 C-62.53303711 52.41589355 -62.06607422 51.83178711 -61.58496094 51.22998047 C-44.373385 29.90206103 -23.62308036 13.69741635 0 0 Z " transform="translate(157,87)"/>
<path d="M0 0 C0.80050781 -0.02449219 1.60101563 -0.04898437 2.42578125 -0.07421875 C14.44564244 -0.1308272 25.9209361 4.84661541 37.13647461 8.74072266 C85.05207205 25.34280333 135.7776285 30.16560265 182.8125 7.9375 C183.84246094 7.42316406 184.87242187 6.90882813 185.93359375 6.37890625 C186.73925781 6.04761719 187.54492188 5.71632813 188.375 5.375 C189.365 5.87 189.365 5.87 190.375 6.375 C184.31597124 17.23381697 178.25822037 27.72071829 170.375 37.375 C169.941875 37.90818848 169.50875 38.44137695 169.0625 38.99072266 C160.09685661 49.97809316 150.52584286 59.56777471 139.375 68.375 C138.42238281 69.15617187 137.46976563 69.93734375 136.48828125 70.7421875 C100.17362414 99.84971035 51.04346007 116.76237741 4.35986328 111.62548828 C-14.02272005 109.30561983 -32.60089232 103.27167463 -44.625 88.375 C-54.72471889 73.8655447 -56.41987095 59.04593371 -54.15625 41.8046875 C-51.22120517 28.42228072 -43.22288575 16.53494292 -31.64160156 9.10205078 C-21.37266671 3.19293481 -11.89148157 0.01860952 0 0 Z " transform="translate(215.625,329.625)"/>
</g>
</svg>